ply
format ascii 1.0
comment Created by Blender 2.80 (sub 75) - www.blender.org, source file: ''
element vertex 8
property float x
property float y
property float z
property float nx
property float ny
property float nz
property float s
property float t
element face 4
property list uchar uint vertex_indices
end_header
-5.975698 -5.975698 -0.008003 0.000000 0.000000 1.000000 0.000000 0.000000
5.975698 -5.975698 -0.008003 0.000000 0.000000 1.000000 1.000000 0.000000
5.975698 5.975698 -0.008003 0.000000 0.000000 1.000000 1.000000 1.000000
-5.975698 5.975698 -0.008003 -0.000000 0.000000 1.000000 0.000000 1.000000
-5.975698 -5.968344 -0.013178 0.000000 -1.000000 0.000385 0.000000 0.000000
5.975698 -5.968344 -0.013178 0.000000 -1.000000 0.000385 1.000000 0.000000
5.975698 -5.963740 11.938216 0.000000 -1.000000 0.000385 1.000000 1.000000
-5.975698 -5.963740 11.938216 0.000000 -1.000000 0.000385 0.000000 1.000000
3 0 1 2
3 0 2 3
3 4 5 6
3 4 6 7
