ply
format ascii 1.0
comment Created by Blender 2.80 (sub 75) - www.blender.org, source file: ''
element vertex 32
property float x
property float y
property float z
property float nx
property float ny
property float nz
property float s
property float t
element face 12
property list uchar uint vertex_indices
end_header
7.478169 0.020419 8.257599 0.387795 0.375127 -0.841959 0.375000 0.000000
7.540612 0.080823 8.313272 0.387795 0.375127 -0.841959 0.625000 0.000000
8.112931 -0.510824 8.313272 0.387795 0.375127 -0.841959 0.625000 0.250000
7.478169 0.020419 8.257599 0.387796 0.375128 -0.841958 0.375000 0.000000
8.112931 -0.510824 8.313272 0.387796 0.375128 -0.841958 0.625000 0.250000
8.050488 -0.571227 8.257599 0.387796 0.375128 -0.841958 0.375000 0.250000
8.557454 -0.080823 7.156907 -0.695271 0.718747 -0.000002 0.375000 0.250000
8.050488 -0.571227 8.257599 -0.695271 0.718747 -0.000002 0.625000 0.250000
8.112931 -0.510824 8.313272 -0.695271 0.718747 -0.000002 0.625000 0.500000
8.557454 -0.080823 7.156907 -0.695267 0.718751 0.000001 0.375000 0.250000
8.112931 -0.510824 8.313272 -0.695267 0.718751 0.000001 0.625000 0.500000
8.619898 -0.020419 7.212580 -0.695267 0.718751 0.000001 0.375000 0.500000
8.619898 -0.020419 7.212580 -0.605157 -0.585388 -0.539543 0.375000 0.500000
8.112931 -0.510824 8.313272 -0.605157 -0.585388 -0.539543 0.625000 0.500000
7.540612 0.080823 8.313272 -0.605157 -0.585388 -0.539543 0.625000 0.750000
8.619898 -0.020419 7.212580 -0.605156 -0.585388 -0.539543 0.375000 0.500000
7.540612 0.080823 8.313272 -0.605156 -0.585388 -0.539543 0.625000 0.750000
8.047578 0.571227 7.212580 -0.605156 -0.585388 -0.539543 0.375000 0.750000
8.047578 0.571227 7.212580 -0.387795 -0.375127 0.841959 0.375000 0.750000
7.985135 0.510824 7.156907 -0.387795 -0.375127 0.841959 0.625000 0.750000
8.557454 -0.080823 7.156907 -0.387795 -0.375127 0.841959 0.625000 1.000000
8.047578 0.571227 7.212580 -0.387793 -0.375126 0.841960 0.375000 0.750000
8.557454 -0.080823 7.156907 -0.387793 -0.375126 0.841960 0.625000 1.000000
8.619898 -0.020419 7.212580 -0.387793 -0.375126 0.841960 0.375000 1.000000
7.985135 0.510824 7.156907 0.605156 0.585388 0.539543 0.125000 0.500000
7.478169 0.020419 8.257599 0.605156 0.585388 0.539543 0.375000 0.500000
8.050488 -0.571227 8.257599 0.605156 0.585388 0.539543 0.375000 0.750000
8.557454 -0.080823 7.156907 0.605156 0.585388 0.539543 0.125000 0.750000
8.047578 0.571227 7.212580 0.695270 -0.718749 -0.000000 0.625000 0.500000
7.540612 0.080823 8.313272 0.695270 -0.718749 -0.000000 0.875000 0.500000
7.478169 0.020419 8.257599 0.695270 -0.718749 -0.000000 0.875000 0.750000
7.985135 0.510824 7.156907 0.695270 -0.718749 -0.000000 0.625000 0.750000
3 0 1 2
3 3 4 5
3 6 7 8
3 9 10 11
3 12 13 14
3 15 16 17
3 18 19 20
3 21 22 23
3 24 25 26
3 24 26 27
3 28 29 30
3 28 30 31
